<?xml version="1.0" encoding="UTF-8"?><svg id="a" xmlns="http://www.w3.org/2000/svg" viewBox="0 0 301.11 102.48"><defs><style>.b{fill:#ccd3de;}.b,.c,.d,.e,.f,.g{opacity:.9;}.b,.c,.d,.e,.f,.h,.i,.j,.k,.l,.m,.n,.o,.p,.q,.r,.s,.t{stroke-width:0px;}.c,.o{fill:#d4dae3;}.d,.n{fill:#acb7c9;}.e,.r{fill:#b7c1d0;}.f{fill:#b9c3d2;}.u{opacity:.85;}.h{fill:#9adaef;}.i{fill:#07295e;}.j{fill:#114280;}.k{fill:#3f96ce;}.l{fill:#2062a2;}.m{fill:#d2d8e2;}.p{fill:#bdc6d4;}.q{fill:#dadfe7;}.s{fill:#c1c9d6;}.t{fill:#e5e8ee;}</style></defs><g class="u"><g class="g"><path class="q" d="M7.67,61.66c.01-.89.09-1.66.24-2.28-.28-1.6-.5-3.19-.74-4.8-.04-.73-.08-1.45-.12-2.17,0,.78-.02,1.56-.03,2.34.05.77.11,1.54.16,2.31.05.77.09,1.55.14,2.31.12.76.23,1.52.34,2.28Z"/><path class="q" d="M24.06,90.26c-.68-.79-1.63-1.65-2.68-2.69-.99-1.11-2.2-2.25-3.38-3.59-.57-.69-1.16-1.39-1.76-2.12-.3-.36-.6-.73-.9-1.1-.27-.39-.55-.79-.82-1.19-.55-.8-1.1-1.61-1.65-2.41-.51-.84-.96-1.71-1.43-2.56,2.97,6.18,7.37,11.63,12.62,15.66Z"/><path class="q" d="M48.13,93.71c-.62-.22-1.22-.44-1.79-.68-.81-.1-1.63-.18-2.44-.3l-2.4-.54c-1.62-.28-3.16-.87-4.72-1.37.63.32,1.24.64,1.87.97.38.13.76.28,1.15.39l1.18.28,2.36.56c.78.23,1.6.25,2.39.38l2.4.32Z"/><path class="q" d="M9.3,61.62c.13.48.26.97.39,1.45.12.49.34.95.5,1.43.34.96.68,1.93,1.02,2.9.42.94.84,1.89,1.26,2.85.22.48.4.97.65,1.44l.77,1.38c1.93,3.77,4.54,7.27,7.51,10.36,2.92,3.16,6.48,5.6,10.06,7.52.92.43,1.84.85,2.75,1.25l.68.3.71.22c.47.14.94.28,1.4.42.94.25,1.83.57,2.76.69.93.14,1.84.25,2.73.34-1.01-.48-2.06-.97-3.13-1.48-1.03-.57-2.08-1.16-3.14-1.75-6.58-2.5-12.45-6.78-17.12-12.06l-.54-.58c-.17-.2-.32-.42-.49-.63l-.97-1.27c-.65-.84-1.31-1.68-1.82-2.61-.55-.91-1.12-1.81-1.64-2.73l-1.36-2.89c-.43-.81-.71-1.68-1.02-2.54-.3-.86-.63-1.71-.91-2.58l-.66-2.66-.33-1.33c-.1-.44-.13-.9-.2-1.35-.54.25-.98.82-1.23,1.68l1.11,4.34,1.52,4.21c-.21-1.02-.43-2.06-.65-3.11-.11-.52-.25-1.04-.35-1.57-.08-.54-.16-1.08-.25-1.63Z"/><path class="q" d="M34.85,90.08c-5.97-2.47-11.42-6.31-15.75-11.2,4.67,5.28,10.54,9.56,17.12,12.06-.48-.24-.92-.55-1.37-.86Z"/><path class="q" d="M17.69,82.88c-.96-1.2-1.93-2.32-2.61-3.6-.35-.62-.71-1.24-1.05-1.85l-.5-.91c-.14-.32-.27-.64-.41-.96-.51-1.28-1.06-2.5-1.47-3.78-.37-1.28-.74-2.55-1.11-3.85l-1.52-4.21-1.11-4.34c-.16.62-.23,1.38-.24,2.28.49,3.88,1.67,7.63,3.19,11.29.46.88.91,1.76,1.37,2.65.24.44.47.89.72,1.32l.85,1.24c.58.83,1.17,1.65,1.78,2.47.68.76,1.38,1.51,2.1,2.25Z"/><path class="q" d="M11.44,74.6c-.94-1.73-1.54-3.65-2.24-5.49-.19-.46-.32-.93-.44-1.42l-.37-1.44c-.22-.97-.54-1.9-.67-2.88.01.82.26,1.64.44,2.54.21.89.42,1.85.72,2.81.35.94.73,1.92,1.14,2.92.21.49.38,1.02.64,1.5.26.48.52.97.78,1.46Z"/><path class="q" d="M12.27,68.16l1.36,2.89c.53.92,1.09,1.82,1.64,2.73.52.93,1.18,1.77,1.82,2.61l.97,1.27c.16.21.32.43.49.63l.54.58-.54-.59c-.17-.2-.32-.42-.48-.63l-.96-1.27c-.64-.85-1.3-1.68-1.82-2.62-.55-.91-1.12-1.81-1.65-2.73l-1.37-2.87Z"/><path class="q" d="M58.24,93.39c-.97.11-1.95,0-2.92-.03-.93.03-1.85.12-2.77.1l-2.77-.14-1.43-.05c-.67-.08-1.34-.16-2-.25.57.24,1.17.47,1.79.68,1.69.08,3.38.14,5.07.14l2.53-.19c.84-.06,1.68-.09,2.51-.27Z"/><path class="q" d="M72.51,92.56c-.45.09-.91.19-1.36.3-1.02.4-2.06.76-3.09,1.15-.52.18-1.03.4-1.55.54l-1.6.41c.65-.14,1.3-.25,1.95-.41l1.9-.6c1.27-.41,2.55-.79,3.75-1.39Z"/><path class="q" d="M9.35,57.62c-.07.02-.13.06-.2.09.07.45.11.91.2,1.35l.33,1.33.66,2.66c.28.87.61,1.72.91,2.58.31.86.59,1.73,1.02,2.54-.43-.81-.69-1.7-1-2.56-.29-.87-.61-1.73-.87-2.6l-.6-2.68-.29-1.34c-.08-.45-.11-.91-.16-1.36Z"/><path class="q" d="M71.15,92.86c3.95-1.78,7.69-4.03,11.02-6.77.84-.68,1.59-1.46,2.39-2.18l1.18-1.11,1.06-1.22c.7-.82,1.44-1.6,2.09-2.46l1.86-2.63-1.93,2.21c-.31.38-.65.72-1.02,1.05l-1.06,1.01-1.06,1-.53.5-.58.45-2.29,1.8c-3.16,2.25-6.49,4.29-10.15,5.75l-1.65.72c-.55.23-1.14.37-1.71.56l-1.72.52c-.57.18-1.14.35-1.74.44l-3.53.64-3.56.24c-.83.19-1.67.21-2.51.27l-2.53.19c-1.68,0-3.38-.06-5.07-.14.83.25,1.7.39,2.6.56.45.08.91.16,1.37.24.46.09.93.15,1.41.15,1.9.05,3.9.22,5.88-.03,4.02-.16,7.94-1.16,11.75-1.76Z"/><path class="q" d="M38.66,91.78l-2.44-.85c1.06.59,2.11,1.18,3.14,1.75,1.07.51,2.12,1,3.13,1.48-.89-.09-1.8-.2-2.73-.34-.93-.12-1.83-.45-2.76-.69-.46-.14-.93-.28-1.4-.42l-.71-.22-.68-.3c-.91-.4-1.83-.81-2.75-1.25-3.58-1.92-7.14-4.36-10.06-7.52-2.97-3.09-5.58-6.58-7.51-10.36l-.77-1.38c-.24-.47-.43-.96-.65-1.44-.42-.96-.85-1.91-1.26-2.85-.34-.97-.68-1.94-1.02-2.9-.16-.48-.38-.94-.5-1.43-.13-.49-.26-.97-.39-1.45.08.55.17,1.09.25,1.63.1.53.24,1.05.35,1.57.22,1.05.44,2.09.65,3.11,4.28,10.27,12.33,18.82,22.21,23.73,4.93,2.46,10.31,4.03,15.79,4.61,5.49.6,11.06.08,16.37-1.31l-1.71.34c-.57.12-1.13.23-1.71.26l-3.44.28c-1.14.07-2.29-.03-3.42-.05l-1.69-.06c-.56-.06-1.12-.15-1.68-.23-4.48-.46-8.73-1.92-12.61-3.72Z"/><path class="q" d="M48.13,93.71l-2.4-.32c-.8-.13-1.61-.15-2.39-.38l-2.36-.56-1.18-.28c-.39-.11-.76-.26-1.15-.39,3.88,1.8,8.13,3.26,12.61,3.72.56.08,1.12.17,1.68.23l1.69.06c1.13.02,2.28.12,3.42.05l3.44-.28c.58-.03,1.15-.14,1.71-.26l1.71-.34,1.6-.41c.53-.14,1.04-.36,1.55-.54,1.03-.38,2.07-.74,3.09-1.15-3.81.6-7.74,1.6-11.75,1.76-1.98.25-3.98.08-5.88.03-.48,0-.95-.06-1.41-.15-.46-.08-.92-.16-1.37-.24-.9-.17-1.78-.32-2.6-.56Z"/><path class="q" d="M38.66,91.78c-.63-.32-1.25-.64-1.87-.97l-.99-.32c-.32-.13-.63-.28-.95-.41.45.31.89.62,1.37.86l2.44.85Z"/><path class="q" d="M7.06,51.17v1.25c.04.72.08,1.44.11,2.17.25,1.6.46,3.2.74,4.8.25-.86.69-1.43,1.23-1.68l-.41-2.95c-.09-.99-.08-1.98-.12-2.97-.16-1.98.13-3.95.24-5.92.56-3.89,1.39-7.76,3-11.31.12-.5.25-1,.37-1.49.11-.5.3-.95.43-1.42l-.61,1.1-.5,1.15-1.03,2.31c-.37.77-.56,1.59-.86,2.38-.27.8-.57,1.6-.82,2.42l-.6,2.49c-.18.84-.47,1.66-.55,2.52l-.37,2.56-.19,1.29-.07,1.3Z"/><path class="q" d="M36.78,90.81c-.48-.25-.97-.47-1.42-.79-.69-.33-1.38-.67-2.08-1,.52.35,1.04.71,1.56,1.06.32.14.63.29.95.41l.99.32Z"/><path class="q" d="M48.35,93.27c-.7-.09-1.39-.19-2.09-.28.02,0,.05.02.09.04.67.08,1.34.16,2,.25Z"/><path class="q" d="M46.35,93.03s-.06-.03-.09-.04c-3.72-.4-7.35-1.54-10.89-2.97.45.32.94.54,1.42.79,1.57.5,3.1,1.09,4.72,1.37l2.4.54c.81.13,1.63.2,2.44.3Z"/><path class="q" d="M9.35,57.62c.05.45.09.91.16,1.36l.29,1.34.6,2.68c.26.88.58,1.73.87,2.6.3.87.57,1.75,1,2.56l1.37,2.87c.53.92,1.1,1.82,1.65,2.73.52.93,1.17,1.77,1.82,2.62l.96,1.27c.16.21.31.43.48.63l.54.59c4.33,4.89,9.79,8.73,15.75,11.2-.52-.35-1.04-.7-1.56-1.06-4.26-2.16-8.27-5.11-11.66-8.91-4.05-4.17-6.92-8.54-8.97-13.21-1.98-4.7-3.12-9.75-3.1-15.4-.02-.59-.1-1.22-.07-1.87.03-.65.07-1.32.11-2.01.03-.69.07-1.4.1-2.12.1-.71.21-1.44.32-2.17.1-.74.2-1.48.3-2.23l.49-2.21c.17-.74.27-1.49.46-2.21.21-.72.41-1.43.59-2.14-1.61,3.55-2.44,7.42-3,11.31-.11,1.96-.4,3.94-.24,5.92.05.99.03,1.99.12,2.97l.41,2.95c.07-.03.13-.07.2-.09Z"/><path class="q" d="M30.15,8.4c-5.84,3.36-10.87,8.05-14.68,13.53-3.82,5.48-6.44,11.75-7.69,18.3,2.07-6.25,5.51-11.82,9.84-16.35.45-.6.9-1.19,1.35-1.78l1.49-1.66c.25-.57.52-1.13.8-1.64.27-.51.65-.89,1.01-1.18,1.29-.96,2.44-1.93,3.74-2.66,4.82-4.17,10.18-7.62,16-10.46-1.02.21-2.05.43-3.07.64-1,.31-1.99.62-2.99.93l-1.49.47-1.44.61c-.96.41-1.93.8-2.87,1.24Z"/><path class="q" d="M16.2,25.76c.49-.62,1.13-1.16,1.69-1.77.59-.58,1.13-1.22,1.74-1.81.09-.18.19-.37.29-.57-.86.67-1.52,1.5-2.3,2.26-.46.63-1.01,1.22-1.42,1.89Z"/><path class="q" d="M48.27,3.7c-1.05.08-2.1.22-3.15.32l-1.57.17c-.52.09-1.03.21-1.54.31-5.82,2.83-11.19,6.28-16,10.46,2.1-1.4,4.26-2.46,6.46-3.55,1.14-.47,2.29-.95,3.46-1.47,1.22-.4,2.48-.82,3.78-1.28,2.82-1.05,3.65-3.59,6.57-3.71,5.05-.29,10.69.46,16.01,1.97,5.35,1.49,10.36,3.64,15.08,5.65.8.39,1.5.96,2.27,1.45.74.53,1.58.98,2.29,1.6,1.45,1.21,3.01,2.38,4.34,3.82l1.05,1.04c.36.34.71.7,1.01,1.09.64.77,1.28,1.54,1.92,2.31.34.38.63.78.91,1.2l.85,1.24c.56.84,1.19,1.63,1.64,2.53.49.88.99,1.75,1.47,2.62.5.87.83,1.8,1.26,2.69.89,1.77,1.45,3.63,2.09,5.42.36.89.53,1.8.77,2.69.24.89.47,1.77.69,2.63.33,1.74.61,3.42.93,5.02-.29-7.88-2.45-15.16-5.79-21.33-3.34-6.19-7.86-11.29-12.97-15.15-5.09-3.88-10.72-6.57-16.48-8.16-5.76-1.58-11.64-2.09-17.38-1.6Z"/><path class="q" d="M19.91,21.62c.18-.39.36-.78.54-1.18l-1.49,1.66c-.45.59-.9,1.19-1.35,1.78.77-.76,1.44-1.59,2.3-2.26Z"/><path class="q" d="M58.24,93.39l2.98-.52c.99-.18,1.94-.52,2.91-.77l-2.18.52c-.73.16-1.48.21-2.21.33l-2.21.31c-.74.07-1.48.07-2.22.11.97.02,1.95.14,2.92.03Z"/><path class="q" d="M6.95,50.63l.08,1.25c.01-.24.02-.47.03-.71,0-.37,0-.74,0-1.1-.03.19-.07.37-.1.56Z"/><path class="q" d="M7.92,68.04c-.22-.8-.43-1.59-.64-2.37-.21-.78-.42-1.53-.5-2.31-.11-.77-.21-1.53-.31-2.27-.08-.75-.23-1.47-.2-2.21-.01-1.47-.01-2.88.05-4.25.18-1.38.39-2.71.64-4-.1-.87.03-1.75.03-2.62l.09-2.61c.22-1.72.41-3.46.7-5.17-.37,1.07-.6,2.17-.9,3.27l-.43,1.66-.25,1.7c-.15,1.14-.37,2.29-.46,3.44-.04,1.17-.09,2.34-.13,3.51-.1,1.19.09,2.35.15,3.55.09,1.19.15,2.4.41,3.57.23,1.18.42,2.39.69,3.58.35,1.17.71,2.35,1.06,3.53Z"/><path class="q" d="M7.05,50.07c0,.37,0,.74,0,1.1l.07-1.3.19-1.29.37-2.56c.08-.85.37-1.68.55-2.52l.6-2.49c.26-.81.55-1.62.82-2.42.3-.8.49-1.62.86-2.38l1.03-2.31.5-1.15.61-1.1c.07-.23.14-.47.21-.69.35-.85.72-1.77,1.33-2.62.61-.85,1.29-1.7,2-2.58.41-.67.96-1.26,1.42-1.89-4.33,4.53-7.77,10.1-9.84,16.35-.3,1.71-.48,3.45-.7,5.17l-.09,2.61c0,.87-.13,1.74-.03,2.62.03-.19.07-.37.1-.56Z"/><path class="q" d="M7.73,63.37c-.04-.61-.06-1.18-.05-1.71-.11-.76-.23-1.52-.34-2.28-.05-.77-.09-1.54-.14-2.31-.05-.77-.11-1.54-.16-2.31,0-.78.02-1.55.03-2.34,0-.18-.02-.36-.03-.54l-.13,2.87.14,2.88.07,1.45c.02.48.13.95.19,1.43.14.96.29,1.91.43,2.87Z"/><path class="q" d="M7.06,52.42v-1.25c0,.24-.02.47-.03.71,0,.18.02.37.03.54Z"/><path class="q" d="M71.15,92.86c.45-.11.91-.21,1.36-.3-1.2.6-2.48.98-3.75,1.39l-1.9.6c-.65.15-1.3.27-1.95.41-5.31,1.39-10.88,1.9-16.37,1.31-5.48-.59-10.85-2.15-15.79-4.61-9.88-4.9-17.93-13.45-22.21-23.73.37,1.3.74,2.57,1.11,3.85.41,1.27.96,2.5,1.47,3.78.13.32.26.64.41.96l.5.91c.35.61.7,1.22,1.05,1.85.68,1.28,1.64,2.4,2.61,3.6-.72-.74-1.42-1.49-2.1-2.25-.61-.82-1.2-1.64-1.78-2.47l-.85-1.24c-.25-.43-.48-.88-.72-1.32-.46-.88-.91-1.77-1.37-2.65-1.53-3.66-2.7-7.41-3.19-11.29,0,.53.01,1.1.05,1.71.13.98.45,1.91.67,2.88l.37,1.44c.11.48.25.96.44,1.42.7,1.84,1.29,3.76,2.24,5.49.47.85.92,1.73,1.43,2.56.55.81,1.11,1.62,1.65,2.41.28.4.55.8.82,1.19.3.37.61.73.9,1.1.6.72,1.19,1.43,1.76,2.12,1.18,1.34,2.39,2.48,3.38,3.59,1.05,1.04,2,1.9,2.68,2.69-5.25-4.03-9.65-9.48-12.62-15.66-.26-.49-.52-.98-.78-1.46-.26-.48-.43-1.01-.64-1.5-.4-1-.78-1.98-1.14-2.92-.3-.97-.51-1.92-.72-2.81-.18-.9-.42-1.72-.44-2.54-.14-.95-.29-1.91-.43-2.87-.06-.48-.17-.95-.19-1.43l-.07-1.45-.14-2.88.13-2.87-.08-1.25c-.24,1.29-.45,2.62-.64,4-.06,1.37-.06,2.78-.05,4.25-.02.74.12,1.46.2,2.21.1.75.21,1.51.31,2.27.08.78.3,1.54.5,2.31.21.78.42,1.57.64,2.37-.35-1.18-.71-2.36-1.06-3.53-.28-1.19-.47-2.4-.69-3.58-.26-1.18-.33-2.38-.41-3.57-.06-1.19-.25-2.36-.15-3.55.04-1.17.09-2.34.13-3.51.09-1.16.31-2.31.46-3.44l.25-1.7.43-1.66c.3-1.1.53-2.21.9-3.27,1.25-6.55,3.87-12.82,7.69-18.3,3.81-5.48,8.84-10.16,14.68-13.53-4.66,2.29-8.92,5.37-12.63,9.05-3.69,3.69-6.91,7.97-9.18,12.81-2.3,4.81-3.82,10.06-4.43,15.51-.1,1.37-.19,2.74-.29,4.11.05,1.38.09,2.76.14,4.15.02.35.02.7.05,1.04l.14,1.04.3,2.08c.12.69.17,1.4.34,2.08l.52,2.06c.31,2.34,1.2,4.63,2.06,6.96.54,1.12,1.11,2.24,1.69,3.36l.43.84.51.8,1.03,1.59c.54.69.95,1.46,1.51,2.14.53.69,1.04,1.4,1.53,2.13l.74,1.09c.25.36.54.69.81,1.04l1.63,2.09c.52.73,1.14,1.35,1.75,2,.61.64,1.23,1.28,1.87,1.9,1.32,1.18,2.78,2.21,4.27,3.15,6.03,3.51,12.73,5.89,19.66,6.89,6.93,1.01,14.07.69,20.94-1.02,6.86-1.71,13.44-4.79,19.17-9.12,5.71-4.34,10.6-9.85,14.26-16.16,2.46-4.22,3.27-10.48,2.59-16.31-.02-.77-.23-1.47-.42-2.06-.2-.6-.43-1.1-.68-1.52l-.12,1.73c-.03.57-.08,1.15-.21,1.71-.21,1.12-.42,2.24-.63,3.36-.21,1.11-.62,2.17-.93,3.25l-.5,1.6c-.17.53-.43,1.03-.64,1.54-.44,1.02-.87,2.04-1.33,3.03-.54.96-1.08,1.91-1.62,2.86-.5.97-1.17,1.84-1.79,2.72l-.94,1.32-.47.66-.53.61-1.86,2.63c-.65.86-1.39,1.63-2.09,2.46l-1.06,1.22-1.18,1.11c-.8.73-1.55,1.5-2.39,2.18-3.33,2.75-7.07,4.99-11.02,6.77Z"/><path class="q" d="M72.14,90.28c3.65-1.46,6.98-3.51,10.15-5.75l2.29-1.8.58-.45.53-.5,1.06-1,1.06-1.01c.36-.33.71-.67,1.02-1.05l1.93-2.21c2.5-3.88,4.5-8.08,5.7-12.5,1.13-4.43,1.69-8.98,1.43-13.49-.62.11-1.16.58-1.45,1.34-.69.68-.95,1.66-1.13,2.84-.24,1.17-.25,2.57-.26,4.09-.16,1.49-.15,3.15-.4,4.76-.15.79-.31,1.59-.5,2.36-.09.39-.19.77-.3,1.14-.11.37-.29.71-.44,1.05-2.63,5.92-6.76,11.26-11.85,15.42-5.06,4.21-11.16,7.06-17.43,8.59-.97.25-1.92.6-2.91.77l-2.98.52,3.56-.24,3.53-.64c.6-.09,1.17-.25,1.74-.44l1.72-.52c.57-.19,1.16-.33,1.71-.56l1.65-.72Z"/><path class="q" d="M100.46,52.11c-.78-1.3-1.76-1.76-2.58-1.6.26,4.51-.31,9.06-1.43,13.49-1.2,4.42-3.2,8.62-5.7,12.5l.53-.61.47-.66.94-1.32c.62-.89,1.29-1.75,1.79-2.72.54-.95,1.08-1.91,1.62-2.86.46-.99.89-2.01,1.33-3.03.21-.51.46-1.02.64-1.54l.5-1.6c.31-1.08.72-2.14.93-3.25.21-1.11.42-2.23.63-3.36.12-.56.17-1.13.21-1.71l.12-1.73Z"/><path class="n" d="M48.22,93.74s-.05-.02-.08-.03c-.06,0-.13,0-.19-.01.09.01.18.03.27.04Z"/><path class="n" d="M12.27,68.16l1.36,2.89c.53.92,1.09,1.82,1.64,2.73.52.93,1.18,1.77,1.82,2.61l.97,1.27c.16.21.32.43.49.63l.54.58-.54-.59c-.17-.2-.32-.42-.48-.63l-.96-1.27c-.64-.85-1.3-1.68-1.82-2.62-.55-.91-1.12-1.81-1.65-2.73l-1.37-2.87Z"/><path class="n" d="M55.88,93.38c-.93.04-1.85.09-2.77.13-.92,0-1.84-.08-2.75-.11-.26,0-.5-.02-.74-.02-.16.05-.31.09-.46.14q.68.1,1.37.19c-.83.03-1.61.02-2.32,0,1.68.06,3.36.14,5.04.13l2.51-.18c.83-.06,1.67-.09,2.49-.27-.78.09-1.57.03-2.36,0Z"/><path class="n" d="M11.43,35.73c.04-.14.07-.26.1-.4-.06.14-.11.27-.17.41.02,0,.04-.01.06,0Z"/><path class="n" d="M10.84,38.27c.02-.09.04-.19.06-.28-.09,0-.22.03-.34.08-.15.5-.29,1-.44,1.5.19-.44.45-.87.72-1.29Z"/><path class="n" d="M72.51,92.56c-.45.09-.91.19-1.36.3-1.02.4-2.06.76-3.09,1.15-.52.18-1.03.4-1.55.54l-1.6.41c.65-.14,1.3-.25,1.95-.41l1.9-.6c1.27-.41,2.55-.79,3.75-1.39Z"/><path class="d" d="M9.35,57.62c.05.45.09.91.16,1.36l.29,1.34.6,2.68c.26.88.58,1.73.87,2.6.3.87.57,1.75,1,2.56l1.37,2.87c.53.92,1.1,1.82,1.65,2.73.52.93,1.17,1.77,1.82,2.62l.96,1.27c.16.21.31.43.48.63l.54.59c4.33,4.89,9.79,8.73,15.75,11.2-.23-.16-.46-.31-.69-.47-.87-.35-1.79-.66-2.64-1.12.27.1.56.17.85.22-.18-.11-.44-.25-.69-.45-1.12-.7-2.26-1.39-3.38-2.12-1.06-.83-2.13-1.66-3.2-2.5-1.11-.94-2.12-1.83-2.7-2.63-.14-.14-.3-.27-.42-.43-4.04-4.04-6.93-8.3-8.98-12.87-.12.04-.26.03-.4.02-.24-.55-.38-1.14-.52-1.72-.14-.58-.29-1.15-.43-1.72-.55-1.3-.81-2.7-1.17-4.09-.41-1.38-.52-2.84-.72-4.32-.28-.38-.45,1.22-.76.46-.02-.1-.04-.19-.06-.28.08.56.15,1.1.23,1.66.07-.03.13-.07.2-.09Z"/><path class="n" d="M36.78,90.81c-.36-.19-.73-.36-1.07-.57-.19-.09-.37-.18-.55-.26l-1.01-.38c.23.15.46.31.69.47.32.14.63.29.95.41l.99.32Z"/><path class="n" d="M9.9,37.89c-1.63,4.2-2.43,8.71-2.84,13.28v1.25c.04.72.08,1.44.11,2.17.25,1.6.46,3.2.74,4.8.25-.86.69-1.43,1.23-1.68-.08-.56-.15-1.11-.23-1.66-.12-.54-.18-1-.19-1.39-.36-4.73,0-9.49,1.08-14.04.04-.35.15-.7.31-1.05.15-.5.29-1,.44-1.5-.29.11-.6.21-.66-.18Z"/><path class="n" d="M61.61,4.04c-.06-.02-.12-.04-.18-.06-.08,0-.15-.02-.22-.02.13.03.27.06.4.09Z"/><path class="f" d="M30.46,8.22c-5.94,3.32-11.02,8.05-14.89,13.56-3.88,5.51-6.53,11.84-7.79,18.44,1.54-4.72,3.93-9.02,6.8-12.81.18-.29.37-.59.57-.9-.07.16-.14.3-.2.43.27-.35.55-.69.82-1.04-.07-.25-.22-.44-.48-.54.45-.45,1.18-1.28,1.76-1.95.59-.66,1.09-1.1,1.25-.65.03.04.02.12,0,.2.26-.34.51-.69.78-1.02l.87-.95c.27-.59.54-1.2.83-1.73.29-.54.61-1.02,1.01-1.29.14-.11.28-.21.42-.31.44-.39.95-.78,1.54-1.17,0,0,.02-.01.02-.01-.15-.95-2.5.48-1.99-.26.68-.79,1.28-1.38,1.81-1.8.57-.37,1.05-.58,1.46-.66.8-.16,1.27.19,1.49.76,4.7-4.01,9.92-7.32,15.56-10.06-1,.21-2.01.42-3,.63-.98.27-1.95.6-2.93.9l-1.46.46c-.48.16-.94.39-1.41.58-.94.4-1.88.8-2.82,1.2Z"/><path class="e" d="M61.43,3.98c.06.02.12.04.18.06-.14-.03-.27-.06-.4-.09-1.13-.13-2.27-.26-3.4-.39-1.13-.06-2.27-.06-3.4-.1-.56-.01-1.13-.05-1.69-.04l-1.69.1c-1.12.08-2.25.07-3.36.2-.94.1-1.87.2-2.8.3l-1.4.15-1.38.29c-5.65,2.74-10.86,6.05-15.56,10.06l.03.09c3.88-2.38,7.73-4.29,12.6-5.8.68-.37,1.49-.64,2.33-.95.84-.31,1.71-.64,2.59-.93.89-.21,1.79-.4,2.63-.56.84-.14,1.63-.31,2.33-.24,1.23.05,2.39.08,3.51.08,1.12.06,2.21.2,3.27.25.53.03,1.05.06,1.57.09.52.07,1.03.14,1.54.21,1.02.14,2.04.19,3.05.33,2,.38,4.09.56,6.24,1.1,1.09.23,2.23.41,3.36.78.58.16,1.17.33,1.77.5.6.18,1.24.31,1.84.57,1.66,1.02,3.36,1.94,4.84,3.13.75.58,1.55,1.09,2.25,1.7.7.62,1.4,1.24,2.09,1.86.34.31.71.6,1.03.93l.94,1c.63.67,1.26,1.33,1.89,1.99.57.71,1.13,1.42,1.69,2.13.56.71,1.16,1.39,1.62,2.16,4.1,5.92,7.04,12.5,8.8,19.8-.72-4.62-2.07-9.39-4.13-14-.56-1.13-1.13-2.27-1.69-3.42-.67-1.09-1.35-2.18-2.03-3.28-.32-.56-.73-1.07-1.12-1.58l-1.17-1.55c-.74-1.07-1.67-1.99-2.54-2.96-3.55-3.81-7.72-7.06-12.23-9.46-4.54-2.34-9.35-3.82-14-4.5Z"/><path class="n" d="M18.21,23.26c.44-.43.82-.91,1.3-1.3.15-.32.29-.63.44-.96l-.87.95c-.27.33-.52.68-.78,1.02-.02.08-.05.18-.09.28Z"/><path class="n" d="M9.52,51.95c-.03-.51-.06-1.06-.09-1.61-.21-.34-.06-1.04.04-1.6.03-.68.07-1.38.1-2.09.02-.36.03-.72.05-1.08.04-.36.1-.72.15-1.09-.04-.03-.08-.06-.12-.09,0,0,.07-.15.18-.38.1-.79.21-1.59.32-2.4-.11-.14-.23-.25-.32-.32-.08-.23-.06-.46-.04-.68-1.08,4.55-1.43,9.31-1.08,14.04.04-1.13.47-1.75.8-2.71Z"/><path class="n" d="M10.43,36.41c.32-.43.66-.65.94-.67.06-.13.11-.27.17-.41.3-1.04.48-2.11.78-3.08-.69,1.35-1.24,2.78-1.89,4.17Z"/><path class="n" d="M17.8,24.11c.47-.49.95-1,1.42-1.52.08-.22.18-.42.29-.63-.48.39-.86.87-1.3,1.3-.1.24-.24.54-.41.85Z"/><path class="n" d="M9.35,57.62c-.07.02-.13.06-.2.09.07.45.11.91.2,1.35l.33,1.33.66,2.66c.28.87.61,1.72.91,2.58.31.86.59,1.73,1.02,2.54-.43-.81-.69-1.7-1-2.56-.29-.87-.61-1.73-.87-2.6l-.6-2.68-.29-1.34c-.08-.45-.11-.91-.16-1.36Z"/><path class="d" d="M64.91,94.96l1.6-.41c.53-.14,1.04-.36,1.55-.54,1.03-.38,2.07-.74,3.09-1.15-3.79.6-7.69,1.59-11.69,1.76-1.97.25-3.95.1-5.84.04-.95,0-1.87-.23-2.77-.37-.9-.17-1.77-.32-2.6-.54-.53-.02-1.12.02-1.72.07.44-.13.92-.14,1.44-.12-.1-.02-.2-.04-.3-.06l-2.28-.3c-.76-.1-1.53-.18-2.27-.39l-2.24-.53-1.12-.26-1.09-.38c3.88,1.8,8.13,3.26,12.61,3.72.56.08,1.12.17,1.68.23l1.69.06c1.13.02,2.28.12,3.42.05l3.44-.28c.58-.03,1.15-.14,1.71-.26l1.71-.34Z"/><path class="c" d="M71.15,92.86c.45-.11.91-.21,1.36-.3-1.2.6-2.48.98-3.75,1.39l-1.9.6c-.65.15-1.3.27-1.95.41-5.31,1.39-10.88,1.9-16.37,1.31-5.48-.59-10.85-2.15-15.79-4.61-9.88-4.9-17.93-13.45-22.21-23.73.37,1.3.74,2.57,1.11,3.85.41,1.27.96,2.5,1.47,3.78.13.32.26.64.41.96l.5.91c.35.61.7,1.22,1.05,1.85.68,1.28,1.64,2.4,2.61,3.6-.72-.74-1.42-1.49-2.1-2.25-.61-.82-1.2-1.64-1.78-2.47l-.85-1.24c-.25-.43-.48-.88-.72-1.32-.46-.88-.91-1.77-1.37-2.65-1.53-3.66-2.7-7.41-3.19-11.29,0,.53.01,1.1.05,1.71.13.98.45,1.91.67,2.88l.37,1.44c.11.48.25.96.44,1.42.7,1.84,1.29,3.76,2.24,5.49.39.71.77,1.42,1.16,2.13.41.7.9,1.35,1.35,2.02.46.67.91,1.33,1.36,1.98.49.62,1,1.21,1.49,1.8.49.59.97,1.17,1.43,1.73.48.55,1,1.03,1.47,1.53.97.96,1.77,1.96,2.61,2.69.99.79,1.98,1.58,2.97,2.38,1.07.69,2.15,1.38,3.25,2.06.28.17.55.35.83.5l.88.42c.59.28,1.19.55,1.79.83.6.26,1.2.56,1.83.79.64.2,1.28.4,1.93.61,1.03.26,2.38.68,3.72,1.01,1.13.2,2.3.46,3.52.75,1.53-.15,3.92.41,5.21.43,1.45-.04,2.87.02,4.29.14,1.41.05,2.81.06,4.21.15.27-.03.55-.07.81-.1.71-.21,2.62-.43,4.1-.29l1.1-.16,1.08-.26,2.17-.52c.32-.08.63-.16.95-.23,1.26-.32,2.47-.81,3.71-1.21.41-.32.95-.44,1.56-.56,11.28-4.44,21.03-12.95,27.08-23.81,2.41-4.26,3.07-10.54,2.4-16.36-.24-1.61-.69-2.81-1.21-3.64-.4,9.55-4.18,18.27-9.75,25.08l-1.86,2.63c-.65.86-1.39,1.63-2.09,2.46l-1.06,1.22-1.18,1.11c-.8.73-1.55,1.5-2.39,2.18-3.33,2.75-7.07,4.99-11.02,6.77Z"/><path class="n" d="M13.48,78.37h-.28c.68.93,1.37,1.85,2.05,2.76-.61-.9-1.18-1.84-1.76-2.76Z"/><path class="n" d="M38.66,91.78l1.09.38,1.12.26,2.24.53c.74.21,1.51.29,2.27.39l2.28.3c-1.32-.24-2.72-.52-3.91-.96l-3.52-.78c-1.17-.3-2.29-.73-3.44-1.09.63.32,1.24.64,1.87.97Z"/><path class="s" d="M7.73,63.37c-.14-.95-.29-1.91-.43-2.87-.06-.48-.17-.95-.19-1.43l-.07-1.45-.14-2.88.13-2.87-.08-1.25c-.24,1.29-.45,2.62-.64,4-.06,1.37-.06,2.78-.05,4.25-.02.74.12,1.46.2,2.21.1.75.21,1.51.31,2.27.08.78.3,1.54.5,2.31.21.78.42,1.57.64,2.37-.35-1.18-.71-2.36-1.06-3.53-.28-1.19-.47-2.4-.69-3.58-.26-1.18-.33-2.38-.41-3.57-.06-1.19-.25-2.36-.15-3.55.04-1.17.09-2.34.13-3.51.09-1.16.31-2.31.46-3.44l.25-1.7.43-1.66c.3-1.1.53-2.21.9-3.27,1.27-6.61,3.92-12.93,7.79-18.44,3.87-5.51,8.95-10.23,14.89-13.56-10.64,5.09-19.37,14.29-23.72,25.7-.15.84-.06,1.51.23,1.85-2.54,4.83-3.33,10.67-2.97,16.4.35,5.78,1.83,11.45,3.65,16.98-.06.49-.44-.51-.65-.88.13.33.24.66.38.98l.46.94.92,1.88c.32.47.63.96.99,1.43.38.46.76.92,1.15,1.4.39.48.77.98,1.15,1.51.19.27.38.53.57.81.21.26.42.53.63.82-.72-1.06-1.22-2.26-1.81-3.41-.26-.49-.52-.98-.78-1.46-.26-.48-.43-1.01-.64-1.5-.4-1-.78-1.98-1.14-2.92-.3-.97-.51-1.92-.72-2.81-.18-.9-.42-1.72-.44-2.54Z"/><path class="n" d="M7.92,68.04c-.22-.8-.43-1.59-.64-2.37-.21-.78-.42-1.53-.5-2.31-.11-.77-.21-1.53-.31-2.27-.08-.75-.23-1.47-.2-2.21-.01-1.47-.01-2.88.05-4.25.18-1.38.39-2.71.64-4-.1-.87.03-1.75.03-2.62l.09-2.61c.22-1.72.41-3.46.7-5.17-.37,1.07-.6,2.17-.9,3.27l-.43,1.66-.25,1.7c-.15,1.14-.37,2.29-.46,3.44-.04,1.17-.09,2.34-.13,3.51-.1,1.19.09,2.35.15,3.55.09,1.19.15,2.4.41,3.57.23,1.18.42,2.39.69,3.58.35,1.17.71,2.35,1.06,3.53Z"/><path class="n" d="M11.44,74.6c.59,1.15,1.09,2.35,1.81,3.41.09.12.18.23.26.35h-.04c.58.93,1.15,1.87,1.76,2.77,1.15,1.27,2.2,2.62,3.37,3.84l1.82,1.79c.61.6,1.2,1.21,1.88,1.72-.84-.73-1.65-1.73-2.61-2.69-.47-.5-.98-.99-1.47-1.53-.46-.56-.94-1.14-1.43-1.73-.49-.59-1-1.18-1.49-1.8-.45-.65-.9-1.31-1.36-1.98-.45-.67-.94-1.32-1.35-2.02-.39-.71-.78-1.42-1.16-2.13Z"/><path class="n" d="M55.88,93.38c.78.04,1.58.09,2.36,0l2.26-.4,1.13-.2,1.11-.31h-.07c-1.1.32-2.26.38-3.38.56l-1.69.24c-.56.08-1.14.06-1.71.09Z"/><path class="b" d="M90.75,76.5c2.57-3.96,4.55-8.27,5.79-12.77,1.14-4.54,1.57-9.19,1.34-13.79-.58.16-1.08.62-1.36,1.35-.56.58-.88,1.37-1.03,2.31-.04.24-.06.48-.08.74-.05.25-.08.51-.11.78-.06.54-.09,1.11-.1,1.72.23.05.41-2.81.56-1.13.16.53.24,1.4.21,2.4,0,.25-.01.51-.05.77-.05.26-.1.52-.16.78-.12.52-.27,1.04-.44,1.53-.13.36-.25.68-.35.97l-.03.44c.16.2.3.43-.09.75-.07.37-.34,1.11-.71,2.03-.19.46-.39.96-.61,1.49-.23.52-.55,1.03-.83,1.55-.29.52-.58,1.04-.85,1.53-.27.49-.53.97-.82,1.35-.56.8-.98,1.42-1.16,1.71,0,0,.25-.31.64-.79.36-.49.96-1.09,1.37-1.8.91-1.39,1.8-2.75,1.81-2.76-.11.35-.22.71-.34,1.1-.04-.06-.08-.11-.11-.18-.18.37-.35.74-.53,1.12.08.54.37.87.06,1.7q.37-.62.73-1.23c-.04.57-.25,1.37-.73,2.08-.45.73-.98,1.46-1.41,2.04-.28-.57.56-1.72.99-2.3l-.42.58c.21-.29.5-.79.65-1.18.12-.41.13-.7-.14-.53-.36.26-.81,1.23-1.16,1.97-.06.16-.15.32-.26.48-.03.05-.06.09-.09.13.03-.04.06-.08.09-.13.08-.13.17-.3.26-.48.11-.27.14-.49.04-.55-.37.59-.73,1.19-1.1,1.78-.02.12-.04.25-.08.37.11-.13.23-.27.37-.42l-.42.57.04-.15c-.97,1.15-.82,1.92-1.56,3.16.34-.78-.58-.15-.4-.75-.1.12-.19.25-.29.38-.16.33-.35.65-.55.97-.22.31-.49.6-.75.89-.52.87-.96,1.78-1.42,2.61-.43-.25-.13-.83.29-1.47-.57.53-1.13,1.1-1.81,1.55-.16.63.08.75-1.31,2.11-.04-.27-.2-.52-.19-.81-1.04.98-2.24,1.75-3.4,2.58-.2.2-.4.4-.59.61,0,.02,0,.35-.59.67.2-.2.38-.45.59-.67h0c-.51.35-1.12.59-1.71.87l-1.56.89c-.52.29-1.02.62-1.58.84l-3.26,1.47s.1.04.17.04c.08-.02.16-.04.26-.05-.1.04-.19.05-.26.05-1.04.2-1.29.96-2.48,1.02l.67-.18c-.9.14-1.66.41-2.38.74-.73.26-1.42.56-2.1.83l2.12-.39,2.06-.62,2.06-.64c.67-.27,1.32-.57,1.98-.85,3.65-1.46,6.98-3.51,10.15-5.75l2.29-1.8.58-.45.53-.5,1.06-1,1.06-1.01c.36-.33.71-.67,1.02-1.05l1.93-2.21Z"/><path class="n" d="M62.66,93c.24-.12.43-.23.89-.47l-.81-.04-1.11.31-1.13.2-2.26.4,2.21-.15c.74-.04,1.49-.09,2.21-.25Z"/><path class="p" d="M48.2,93.72s-.04,0-.05,0c.03.01.05.02.08.03.02,0,.05,0,.07.01.23,0,.46,0,.67.03-.22,0-.45,0-.67-.03h-.04c.83.22,1.7.37,2.6.54.9.13,1.83.38,2.77.37,1.89.06,3.88.2,5.84-.04,3.99-.17,7.9-1.15,11.69-1.76,3.95-1.78,7.69-4.03,11.02-6.77.84-.68,1.59-1.46,2.39-2.18l1.18-1.11,1.06-1.22c.7-.82,1.44-1.6,2.09-2.46l1.86-2.63-1.93,2.21c-.31.38-.65.72-1.02,1.05l-1.06,1.01-1.06,1-.53.5-.58.45-2.29,1.8c-3.16,2.25-6.49,4.29-10.15,5.75-.66.29-1.31.59-1.98.85l-2.06.64-2.06.62-2.12.39c-.64.26-1.28.48-1.95.59.33-.17.52-.27.69-.36-.72.16-1.47.21-2.21.25l-2.21.15c-.82.18-1.66.21-2.49.27l-2.51.18c-1.67.02-3.36-.07-5.04-.13Z"/><path class="r" d="M100.5,51.42c-.8-1.29-1.81-1.7-2.63-1.49.23,4.6-.19,9.26-1.34,13.79-1.24,4.51-3.22,8.82-5.79,12.77,5.57-6.81,9.36-15.53,9.75-25.08Z"/><path class="t" d="M7.05,50.07c0,.37,0,.74,0,1.1.41-4.57,1.21-9.09,2.84-13.28,0-.04-.01-.08-.01-.13.14-.57.28-1.03.54-1.34.66-1.39,1.2-2.82,1.89-4.17.08-.26.16-.53.24-.78.21-.57.49-1.16.8-1.75.17-.37.31-.77.53-1.15.22-.37.46-.75.69-1.15-2.87,3.79-5.27,8.09-6.8,12.81-.3,1.71-.48,3.45-.7,5.17l-.09,2.61c0,.87-.13,1.74-.03,2.62.03-.19.07-.37.1-.56Z"/><path class="n" d="M7.06,52.42v-1.25c0,.24-.02.47-.03.71,0,.18.02.37.03.54Z"/><path class="n" d="M17.69,82.88c-.96-1.2-1.93-2.32-2.61-3.6-.35-.62-.71-1.24-1.05-1.85l-.5-.91c-.14-.32-.27-.64-.41-.96-.51-1.28-1.06-2.5-1.47-3.78-.37-1.28-.74-2.55-1.11-3.85l-1.52-4.21-1.11-4.34c-.16.62-.23,1.38-.24,2.28.49,3.88,1.67,7.63,3.19,11.29.46.88.91,1.76,1.37,2.65.24.44.47.89.72,1.32l.85,1.24c.58.83,1.17,1.65,1.78,2.47.68.76,1.38,1.51,2.1,2.25Z"/><path class="r" d="M9.3,61.62c.13.48.26.97.39,1.45.12.49.34.95.5,1.43.34.96.68,1.93,1.02,2.9.42.94.84,1.89,1.26,2.85.22.48.4.97.65,1.44l.77,1.38c1.93,3.77,4.54,7.27,7.51,10.36,2.92,3.16,6.48,5.6,10.06,7.52.92.43,1.84.85,2.75,1.25l.68.3.71.22c.47.14.94.28,1.4.42.94.25,1.83.57,2.76.69.93.14,1.84.25,2.73.34-1.01-.48-2.06-.97-3.13-1.48-1.03-.57-2.08-1.16-3.14-1.75-6.58-2.5-12.45-6.78-17.12-12.06l-.54-.58c-.17-.2-.32-.42-.49-.63l-.97-1.27c-.65-.84-1.31-1.68-1.82-2.61-.55-.91-1.12-1.81-1.64-2.73l-1.36-2.89c-.43-.81-.71-1.68-1.02-2.54-.3-.86-.63-1.71-.91-2.58l-.66-2.66-.33-1.33c-.1-.44-.13-.9-.2-1.35-.54.25-.98.82-1.23,1.68l1.11,4.34,1.52,4.21c-.21-1.02-.43-2.06-.65-3.11-.11-.52-.25-1.04-.35-1.57-.08-.54-.16-1.08-.25-1.63Z"/><path class="m" d="M34.85,90.08c-5.97-2.47-11.42-6.31-15.75-11.2,4.67,5.28,10.54,9.56,17.12,12.06-.48-.24-.92-.55-1.37-.86Z"/><path class="n" d="M43.75,92.69s-.02,0-.02,0c-1.34-.34-2.7-.64-4.05-1-1.31-.47-2.64-.95-3.96-1.43.34.2.71.37,1.07.57,1.15.36,2.28.79,3.44,1.09l3.52.78Z"/><path class="o" d="M11.44,74.6c-.94-1.73-1.54-3.65-2.24-5.49-.19-.46-.32-.93-.44-1.42l-.37-1.44c-.22-.97-.54-1.9-.67-2.88.01.82.26,1.64.44,2.54.21.89.42,1.85.72,2.81.35.94.73,1.92,1.14,2.92.21.49.38,1.02.64,1.5.26.48.52.97.78,1.46Z"/><path class="n" d="M38.66,91.78c-.63-.32-1.25-.64-1.87-.97l-.99-.32c-.32-.13-.63-.28-.95-.41.45.31.89.62,1.37.86l2.44.85Z"/><path class="n" d="M14.7,27.68c.36-.45.73-.92,1.12-1.4,0-.14-.02-.25-.05-.37-.27.35-.54.69-.82,1.04-.13.31-.21.54-.25.73Z"/><path class="n" d="M6.95,50.63l.08,1.25c.01-.24.02-.47.03-.71,0-.37,0-.74,0-1.1-.03.19-.07.37-.1.56Z"/><path class="n" d="M7.73,63.37c-.04-.61-.06-1.18-.05-1.71-.11-.76-.23-1.52-.34-2.28-.05-.77-.09-1.54-.14-2.31-.05-.77-.11-1.54-.16-2.31,0-.78.02-1.55.03-2.34,0-.18-.02-.36-.03-.54l-.13,2.87.14,2.88.07,1.45c.02.48.13.95.19,1.43.14.96.29,1.91.43,2.87Z"/><path class="m" d="M7.67,61.66c.01-.89.09-1.66.24-2.28-.28-1.6-.5-3.19-.74-4.8-.04-.73-.08-1.45-.12-2.17,0,.78-.02,1.56-.03,2.34.05.77.11,1.54.16,2.31.05.77.09,1.55.14,2.31.12.76.23,1.52.34,2.28Z"/><path class="n" d="M42.49,94.17c-.89-.09-1.8-.2-2.73-.34-.93-.12-1.83-.45-2.76-.69-.46-.14-.93-.28-1.4-.42l-.71-.22-.68-.3c-.91-.4-1.83-.81-2.75-1.25-3.58-1.92-7.14-4.36-10.06-7.52-2.97-3.09-5.58-6.58-7.51-10.36l-.77-1.38c-.24-.47-.43-.96-.65-1.44-.42-.96-.85-1.91-1.26-2.85-.34-.97-.68-1.94-1.02-2.9-.16-.48-.38-.94-.5-1.43-.13-.49-.26-.97-.39-1.45.08.55.17,1.09.25,1.63.1.53.24,1.05.35,1.57.22,1.05.44,2.09.65,3.11,4.28,10.27,12.33,18.82,22.21,23.73,4.93,2.46,10.31,4.03,15.79,4.61,5.49.6,11.06.08,16.37-1.31l-1.71.34c-.57.12-1.13.23-1.71.26l-3.44.28c-1.14.07-2.29-.03-3.42-.05l-1.69-.06c-.56-.06-1.12-.15-1.68-.23-4.48-.46-8.73-1.92-12.61-3.72l-2.44-.85c1.06.59,2.11,1.18,3.14,1.75,1.07.51,2.12,1,3.13,1.48Z"/></g></g><path class="h" d="M66.79,75.74s-.31,2.89-.04,3.82.6,1.65,1.74,2.69,1.8,1.53,2.94,1.58,2.61.33,3.92-.49,1.85-1.2,2.83-2.4c.98-1.2,1.14-2.72,1.04-3.6s0-2.12-.71-3.11c-.71-.98-2.69-2.67-2.69-2.67l.68,6.64-1.31,3.21-4.64.07-3.77-5.75Z"/><path class="k" d="M68.33,64.71l2.07,2.51s2.81,2.63,3.88,3.34c.63.42,1.62.8,2.33,1.95s1.23,1.86,1.39,3.39.3,2.83-.19,3.75c-.49.93-.88,1.9-2.51,2.55s-2.23.54-3.32.33-2.27-1.1-2.87-1.7-1.3-1.61-1.63-2.12c-.44-.67-.79-2.44-.73-2.39v-9.37s1.36-2.12,1.36-2.12l.22-.11Z"/><path class="l" d="M66.75,62.14l1.58,2.56s.27,2.02,1.91,3.76c1.63,1.74,2.85,1.94,4.64,3.28.92.69,2.04,2.55,2.21,3.92.16,1.36.44,2.3-.45,3.72-.55.88-1.42,1.36-2.53,1.73-1.91.65-3.45-.21-4.81-1.63-1.36-1.42-2.49-2.84-2.49-3.49s-.26-4.05-.65-5.34c-.24-.78-1.46-2.91-1.46-2.91l2.05-5.59Z"/><path class="j" d="M64.63,58.82l2.24,3.52s.86,2.67,1.52,5.39,1.88,3.95,2.15,5.73c.18,1.2.24.82.16,2.03-.02.3-.52,1.37-1.12,1.48s-1.04.1-1.31-.44-.79-2.7-1.09-3.87c-.32-1.27-1.2-2.61-1.2-2.61l-4.14-7.52-.38-2.78,3.16-.93Z"/><path class="k" d="M50.15,56.75s.32,3.6-.07,5.02c-.38,1.42-1.04,2.78-1.14,4.58-.11,1.8.08,2.29.33,2.94.32.84.42,1.73,2,2.08,1.77.39,1.68.18,2.39-.14.71-.33,1.33-1.07,1.33-2.05s-.71-2.89-1.04-3.76-.82-2.72-.82-3.6-.02-5.27-.02-5.27l-2.97.2Z"/><path class="l" d="M50.14,56.69l.08,1.39s.13.42,1.06.31,1.35-.25,1.58-.65.44-2.78.44-2.78l-3.15,1.73Z"/><path class="j" d="M50.03,55.44l.12,1.3s.35.26,1.13.06,1.22-.51,1.53-.82c.43-.42.57-1.34.57-1.34,0,0-1.85.22-2.44.4-.23.07-.91.39-.91.39Z"/><path class="h" d="M79.88,43.08s3.16-.43,4.03.84c.56.81.78.84,1.2,2.1s.3,1.95.06,3.03-.12,1.26-1.08,2.4c-.96,1.14-1.5,1.5-2.28,1.8s-1.89.48-2.7.3-3.06-2.78-3.06-2.78c0,0,6.48-1.11,6.54-1.35s.98-1.25,1.1-2.21-3.8-4.14-3.8-4.14Z"/><path class="l" d="M74.81,44.44s3.54-1.42,5.07-1.36c1.53.05,2.61,1.09,3.05,1.69s1.18,1.95,1.2,3.16c.02,1.31-.16,1.96-.49,2.51s-1.36,1.58-2.02,1.85c-.65.27-1.96.49-2.67.33s-3.87-2.02-3.87-2.02l-.27-6.16Z"/><path class="j" d="M72.8,44.93c.36-.1,4.3-.71,4.47-.76s1.91-.46,1.91-.46c0,0,1.1-.33,2.02.46.82.71,1.09.9,1.58,2.1s.6,1.74.38,3.05c-.22,1.31-.46,1.42-1.44,2.18s-1.93.84-2.75.63-3.27-1.31-3.7-1.47-2.42-5.88-2.42-5.88"/><path class="h" d="M71.03,23.33s.63-2.15,2.27-2.79c1.35-.52,1.8-.9,3.55-.45s2.78.98,3.55,1.88c.78.9,1.09,1.52,1.27,2.7s.36,1.05.14,2.67-.38,1.82-1.28,2.64-2.08.99-3.02,1.2-3.92.27-3.92.27l-2.56-8.12Z"/><path class="k" d="M69.71,28.1c.05-.16.72-3.47,1.34-4.4.62-.93,1.09-1.68,2.09-2.35.88-.59,1.6-.85,2.64-.75,1.24.12,1.16.31,1.89.62s1.81.98,2.22,1.65c.36.59.62.67.78,2.33.16,1.65.13,2.17-.44,3.05s-.59.83-1.32,1.55-1.5,1.19-2.38,1.34c-.88.16-2.9.52-2.9.52l-4.24-1.99.31-1.58Z"/><path class="h" d="M27.38,31.37s-2.2-1.65-3.55-1.72c-1.35-.06-3.29.37-4.09,1.16-.45.45-1.87,2.23-2.19,3.27-.21.71-.34,2.35,0,3.74s.59,2.53,1.97,3.51,2.19,1.45,2.9,1.55c1.27.18,3.49.06,3.49.06l-5.25-9.46,6.7-2.12Z"/><path class="i" d="M49.71,52.43l.31,3.01s.38,0,1.53-.27c1.14-.27,1.74-.22,1.74-.22l.59-2.29-4.18-.24Z"/><path class="l" d="M73.34,32.02s2.45-1.47,3.49-2.23,1.8-1.47,2.29-2.4.82-1.91.49-3.21c-.29-1.16-.27-1.36-1.63-2.07-1.36-.71-1.91-.71-2.56-.49s-1.8.71-2.4,1.47-1.31,1.31-1.69,2.12-1.91,4.33-1.91,4.33l3.92,2.48Z"/><path class="h" d="M48.58,20.99s-1.41-1.53-1.37-3.17c.04-1.63.18-3.15.84-3.88s1.06-1.21,1.96-1.49,1.53-.51,2.61-.45c.81.05,1.4.09,2.06.49s1.06.71,1.45,1.27c.29.41,1.07,1.68,1.18,2.98.31,3.41-1.39,5.66-1.39,5.66l-6.48-.23"/><path class="h" d="M22.26,69.89c-.16.16-.72.49-1.01,1.48s-.41,1.76-.37,2.61.29,1.27.57,1.8.82,1.14,1.47,1.43.8.56,1.9.69c2.72.33,4.38-1.74,4.38-1.74l-5.97-6.5-.98.23Z"/><path class="k" d="M29.5,33.8c-.04-.55-2.63-3.05-3.68-3.29-.72-.17-2.66-.29-3.6.2s-1.9.97-2.53,2-1.06,1.65-1.06,3.41.2,2.45.86,3.39c.76,1.1,2.08,2.19,3.15,2.51,1.06.33,2.22.73,2.98.9.87.19,3.51.53,3.51.53l-6.01-9.72,6.37.06Z"/><path class="k" d="M30.74,70.26s.06,1.3.11,2.4c.04.86-.1,1.82-.74,2.6-.8.97-1.21,1.14-2.17,1.58s-2.22.71-3.36.33-1.26-.48-1.26-.48l7.2-6.37"/><path class="k" d="M55.04,23.64s1.29-1.95,1.58-3.4.16-2.83.05-3.59-.16-.91-.67-1.82c-.48-.86-.85-1.3-1.87-1.69s-1.02-.35-2.15-.3c-1.13.05-1.38.24-1.77.4s-1.08.84-1.39,1.29c-.22.32-.68,1.47-.73,2.15s-.02,2.06.08,2.52c.39,1.89,1.79,4.23,1.78,4.04v-4.79l4.75.29.33,4.91Z"/><path class="l" d="M38.38,58.79s-3.01,3.57-3.88,4.71-1.69,1.96-2.12,2.72-1.69,3.6-1.63,4.03.22,1.91-.44,3c-.65,1.09-1.18,1.91-2.29,2.89-1.11.98-1.53,1.14-2.29,1.14s-1.55-.14-2.3-.54c-1.29-.69-1.57-1.69-1.85-2.72-.45-1.65.2-3.66.9-4.5,1.09-1.31,6.36-2.47,6.36-2.47l9.33-8.2.22-.05Z"/><path class="j" d="M65.36,34.25l4.77-5.56,2.56-3.16s.38-.33.82-.44,1.17-.49,1.93-.16,1.48,1.19,1.72,1.74c.16.38.11.82-.11,1.63s-1.33,1.58-1.85,2.02c-.63.53-2.4,2.29-2.4,2.29l-5.04,4.74h-1.33l-1.06-3.11Z"/><path class="l" d="M50.05,23.85s-.71-3.84-.74-5.18-.13-1.48.27-2.51c.36-.92.73-1.55,1.65-1.98,1.2-.56,1.69-.44,2.5-.15,1.2.42,1.18.52,1.7,1.2.56.73.83,1.16.83,2.49,0,1.75-.03,2.1-.3,3.3-.27,1.2-.58,2.36-.71,3.16-.31,1.97-.74,7.93-.74,7.93l-4.47-8.25Z"/><path class="j" d="M50.43,30.79c0-.27-.35-6.81-.35-6.81,0,0-.08-1.91.19-3.95.26-1.93.41-3.21,1.61-3.92s1.77-.46,2.75.38c.91.78.81,1.15.65,2.78-.16,1.72-.57,2.89-.68,4.36s-.44,5.61-.38,6.05.22,2.15.22,2.15l-4-1.04Z"/><path class="j" d="M30.2,35.82c0-.16-.42-2.43-1.84-3.27-1.49-.88-1.72-1.1-3.23-1.1s-2.78,0-3.6,1.02c-.82,1.02-1.51,1.8-1.39,3.47s.45,2.92,1.23,3.62,1.59,1.37,2.61,1.9c1.02.53,2.08,1.12,2.82,1.39,1.48.54,6.11,1.55,6.11,1.55l-2.72-8.58Z"/><path class="j" d="M47.79,52.09s-7.98,6.01-10,7.75c-2.02,1.74-4.86,4.37-5.52,5.56-.85,1.54-2.7,5.99-3.25,7.25-.37.84-.53,1.32-1.55,2.35-.93.93-1.72,1-2.82.78-.9-.18-1.48-1.19-1.98-1.92s-.75-1.5-.6-2.56-.09-1.49.82-2.18c.49-.38,2.67-1.63,3.38-2.4.71-.76,3.32-3.87,4.19-4.74s4.17-4.46,4.74-4.98c1.2-1.11,2.42-2.18,2.42-2.18l10.16-2.72Z"/><path class="i" d="M50.41,30.49s.05,2.51,0,4.09.33,3.16,0,4.14-.44,2.07-1.36,2.72-2.51,1.42-4.58,1.04c-2.07-.38-4.63-1.04-6.16-1.63s-5.11-2.68-6.65-3.86c-.79-.61-2.12-1.86-3.11-2.57s-1.59-1.61-2.45-1.66-1.07,0-1.35.43-.71.83-.35,2.05c.41,1.37.39,1.46,1.04,2.69.62,1.17,1.61,2.38,2.32,3.19s1.39,1.31,2.48,1.91,2.29,1.42,4.03,1.85c1.74.44,1.47.38,3.7.93,2.23.54,3.36.3,4.18,1.01s.99.68,1.16,1.28.22.65-.16,1.53-1.53,1.74-2.02,2.23-4.14,3.49-4.14,3.49c0,0,2.45-.22,4.19-.65,1.74-.44,2.78-.82,3.81-1.31,1.04-.49,2.18-.98,2.67-1.04s.38-.11,1.36.16c.98.27,1.04.6,2.12.65,1.09.05,1.25.22,2.07.22s.16-.49,2.29.49c2.12.98,3.38,3.32,3.38,3.32l2.94,5.34s.76,1.63,1.42,1.53.87-.38.71-1.04-1.36-1.63-1.14-2.4c.22-.76.54-.87.87-1.04s1.25-.09,1.25-.09c0,0-2.5-5.02-2.83-6.12s-.65-2.07.16-2.78c.82-.71.93-1.04,1.8-1.04s2.02-.05,4.41.33c2.4.38,4.19.76,5.34.82,1.14.05,2.56.44,3.6.33s1.69-.82,1.91-1.14.98-1.04.65-2.18-1.04-2.12-1.8-2.29-2.45-1.14-3.38-.98c-.93.16-2.61.49-4.41.49s-4.63.38-5.5-.05-2.12-1.25-2.02-2.07.82-1.96,1.69-2.72,3.16-2.56,3.6-3.27,1.25-1.58.87-2.61-1.14-1.09-1.58-1.14-1.25.49-1.25.49c0,0-2.67,2.12-4.09,3.27-1.42,1.14-3.27,2.61-4.09,2.72s-1.47.27-2.12-.27c-.65-.54-1.47-2.78-1.42-3.6s.05-4.03.05-4.03c0,0-.35-3.05-1.06-3.7s-1.79-.62-2.26-.11c-.87.95-.82,2.67-.82,2.67Z"/><path class="j" d="M140.17,49.56c-.54-.54-1.33-.82-2.35-.82h-7.06c-.83,0-1.44.21-1.82.62-.38.42-.58.99-.58,1.73s.19,1.36.58,1.78c.38.42.99.62,1.82.62h4.61v7.56c-.8.35-1.63.65-2.52.87-1.26.3-2.55.46-3.86.46-2.02,0-3.82-.5-5.4-1.49-1.58-.99-2.84-2.47-3.77-4.44-.93-1.97-1.39-4.36-1.39-7.18s.46-5.05,1.39-6.98c.93-1.94,2.19-3.4,3.79-4.39,1.6-.99,3.39-1.49,5.38-1.49,1.44,0,2.83.19,4.18.58,1.34.38,2.69.88,4.03,1.49.61.29,1.18.38,1.7.26.53-.11.92-.38,1.18-.79.32-.58.41-1.14.26-1.68-.14-.54-.5-1.04-1.08-1.49-1.31-1.02-2.88-1.83-4.7-2.42-1.82-.59-3.78-.89-5.86-.89-3.14,0-5.98.74-8.52,2.21-2.54,1.47-4.54,3.56-6,6.26-1.46,2.71-2.18,5.83-2.18,9.38s.73,6.68,2.18,9.38,3.47,4.79,6.05,6.26c2.58,1.47,5.5,2.21,8.76,2.21,1.86,0,3.69-.25,5.5-.74,1.81-.5,3.42-1.24,4.82-2.23.67-.48,1.12-1.02,1.34-1.61.22-.59.34-1.45.34-2.57v-8.11c0-1.02-.27-1.81-.82-2.35Z"/><path class="j" d="M169.23,62.62c-.37-.42-.98-.62-1.85-.62h-12.38v-10.94h10.46c.86,0,1.48-.2,1.85-.6.37-.4.55-1,.55-1.8s-.18-1.36-.55-1.78c-.37-.42-.98-.62-1.85-.62h-10.46v-9.65h11.9c.86,0,1.48-.21,1.85-.62.37-.42.55-1.01.55-1.78s-.18-1.31-.55-1.73c-.37-.42-.98-.62-1.85-.62h-15.07c-1.02,0-1.81.27-2.35.82-.54.54-.82,1.33-.82,2.35v28.61c0,.99.28,1.77.84,2.33.56.56,1.34.84,2.33.84h15.55c.86,0,1.48-.21,1.85-.62.37-.42.55-1.01.55-1.78s-.18-1.36-.55-1.78Z"/><path class="j" d="M202.42,32.38c-.42-.35-.99-.53-1.73-.53h-.53c-.74,0-1.31.18-1.73.53-.42.35-.62.91-.62,1.68v21.16l-15.02-21.26c-.61-.77-1.14-1.31-1.61-1.63-.46-.32-1.03-.48-1.7-.48-.86,0-1.53.22-1.99.65-.46.43-.7,1.08-.7,1.94v30.1c0,.77.22,1.34.65,1.7.43.37,1,.55,1.7.55h.53c.74,0,1.31-.18,1.73-.55.42-.37.62-.94.62-1.7v-21.12l15.02,21.22c.64.8,1.19,1.36,1.66,1.68.46.32,1.03.48,1.7.48.83,0,1.48-.22,1.94-.67.46-.45.7-1.09.7-1.92v-30.14c0-.77-.21-1.33-.62-1.68Z"/><path class="j" d="M212.69,66.22c-.54-.38-.82-.99-.82-1.82v-30.14c0-.86.26-1.48.79-1.85.53-.37,1.22-.55,2.09-.55h.58c.86,0,1.56.18,2.09.55.53.37.79.98.79,1.85v30.14c0,.83-.27,1.44-.82,1.82-.54.38-1.23.58-2.06.58h-.58c-.83,0-1.52-.19-2.06-.58Z"/><path class="j" d="M232.59,65.5c-1.94-1.12-3.39-2.7-4.37-4.73-.98-2.03-1.46-4.42-1.46-7.18v-19.34c0-.86.26-1.48.79-1.85.53-.37,1.22-.55,2.09-.55h.58c.86,0,1.56.18,2.09.55.53.37.79.98.79,1.85v19.97c0,2.56.62,4.54,1.87,5.95s3.04,2.11,5.38,2.11,4.06-.7,5.28-2.11c1.22-1.41,1.82-3.39,1.82-5.95v-20.06c0-.74.21-1.3.62-1.7.42-.4.99-.6,1.73-.6h.53c.74,0,1.31.2,1.73.6s.62.97.62,1.7v19.44c0,4.19-1.1,7.5-3.31,9.94s-5.42,3.65-9.65,3.65c-2.82,0-5.19-.56-7.13-1.68Z"/><path class="j" d="M264.75,66.25c-1.78-.62-3.24-1.48-4.39-2.57-.48-.45-.75-.91-.82-1.39-.06-.48.05-.96.34-1.44.29-.45.69-.73,1.2-.84.51-.11,1.06-.02,1.63.26,1.5.74,2.88,1.3,4.13,1.68,1.25.38,2.45.58,3.6.58,1.25,0,2.31-.21,3.19-.62.88-.42,1.54-.99,1.99-1.73.45-.74.67-1.57.67-2.5,0-1.15-.44-2.17-1.32-3.05-.88-.88-2.31-1.67-4.3-2.38l-1.34-.48c-2.02-.7-3.7-1.5-5.04-2.38-1.34-.88-2.38-1.95-3.1-3.22-.72-1.26-1.08-2.78-1.08-4.54,0-2.11.5-3.94,1.51-5.47s2.38-2.7,4.1-3.5c1.73-.8,3.65-1.2,5.76-1.2,1.89,0,3.62.24,5.18.72,1.57.48,2.91,1.17,4.03,2.06.48.38.77.83.86,1.34.1.51,0,1.01-.29,1.49-.29.45-.69.73-1.2.84-.51.11-1.09.02-1.73-.26-.99-.48-2.05-.86-3.17-1.13s-2.18-.41-3.17-.41c-1.73,0-3.11.39-4.15,1.18-1.04.78-1.56,1.91-1.56,3.38,0,1.12.4,2.08,1.2,2.88.8.8,2.13,1.54,3.98,2.21l1.34.48c3.26,1.15,5.69,2.53,7.27,4.13,1.58,1.6,2.38,3.71,2.38,6.34,0,2.14-.51,4.01-1.54,5.59-1.02,1.58-2.43,2.79-4.22,3.62-1.79.83-3.81,1.25-6.05,1.25s-4.15-.31-5.93-.94Z"/></svg>